<?xml version="1.0" encoding="UTF-8"?>
<svg width="700pt" height="500pt" version="1.1" viewBox="0 0 600 560" xmlns="http://www.w3.org/2000/svg" xmlns:xlink="http://www.w3.org/1999/xlink">
 <g>
  <path fill="#737c83" d="m301.66 85.039c0 31.441-25.488 56.93-56.93 56.93-31.441 0-56.93-25.488-56.93-56.93 0-31.441 25.488-56.93 56.93-56.93 31.441 0 56.93 25.488 56.93 56.93"/>
  <path fill="#737c83" d="m296.19 85.039c-0.16406 21.273-13.562 41.125-33.797 48.344-20.508 7.3281-43.422 0.98438-57.422-15.695-13.891-16.57-15.367-41.125-4.1562-59.445 10.992-18.102 32.922-27.945 53.758-23.734 24.008 4.8672 41.453 26.086 41.617 50.531 0.054688 7.0547 10.992 7.0547 10.938 0-0.16406-26.141-16.625-49.547-41.125-58.68-24.227-8.9688-52.828-1.2031-69.18 18.812-16.625 20.344-19.195 49.547-5.4141 72.188 13.672 22.477 40.414 33.906 66.117 28.766 28.711-5.7969 49.438-32.047 49.656-61.086 0-7.0547-10.938-7.0547-10.992 0z"/>
  <path fill="#737c83" d="m301.66 280c0 31.441-25.488 56.93-56.93 56.93-31.441 0-56.93-25.488-56.93-56.93s25.488-56.93 56.93-56.93c31.441 0 56.93 25.488 56.93 56.93"/>
  <path fill="#737c83" d="m296.19 280c-0.16406 21.273-13.562 41.125-33.797 48.344-20.508 7.3281-43.422 0.98438-57.422-15.695-13.891-16.57-15.367-41.125-4.1562-59.445 10.992-18.102 32.922-27.945 53.758-23.734 24.008 4.8672 41.453 26.086 41.617 50.531 0.054688 7.0547 10.992 7.0547 10.938 0-0.16406-26.141-16.625-49.547-41.125-58.68-24.227-8.9688-52.828-1.2031-69.18 18.812-16.625 20.344-19.195 49.547-5.4141 72.188 13.672 22.477 40.414 33.906 66.117 28.766 28.711-5.7969 49.438-32.047 49.656-61.086 0-7.0547-10.938-7.0547-10.992 0z"/>
  <path fill="#737c83" d="m301.66 474.96c0 31.441-25.488 56.93-56.93 56.93-31.441 0-56.93-25.488-56.93-56.93 0-31.441 25.488-56.93 56.93-56.93 31.441 0 56.93 25.488 56.93 56.93"/>
  <path fill="#737c83" d="m296.19 474.96c-0.16406 21.273-13.562 41.125-33.797 48.344-20.508 7.3281-43.422 0.98437-57.422-15.695-13.891-16.57-15.367-41.125-4.1562-59.445 10.992-18.102 32.922-27.945 53.758-23.734 24.008 4.8672 41.453 26.086 41.617 50.531 0.054688 7.0547 10.992 7.0547 10.938 0-0.16406-26.141-16.625-49.547-41.125-58.68-24.227-8.9688-52.828-1.2031-69.18 18.812-16.625 20.344-19.195 49.547-5.4141 72.188 13.672 22.477 40.414 33.906 66.117 28.766 28.711-5.7969 49.438-32.047 49.656-61.086 0-7.0547-10.938-7.0547-10.992 0z"/>
  <path fill="#737c83" d="m512.2 85.039c0 31.441-25.488 56.93-56.93 56.93-31.441 0-56.93-25.488-56.93-56.93 0-31.441 25.488-56.93 56.93-56.93 31.441 0 56.93 25.488 56.93 56.93"/>
  <path fill="#737c83" d="m506.73 85.039c-0.16406 21.273-13.562 41.125-33.797 48.344-20.508 7.3281-43.422 0.98438-57.422-15.695-13.891-16.57-15.367-41.125-4.1562-59.445 10.992-18.102 32.922-27.945 53.758-23.734 24.008 4.8672 41.453 26.086 41.617 50.531 0.054687 7.0547 10.992 7.0547 10.938 0-0.16406-26.141-16.625-49.547-41.125-58.68-24.227-8.9688-52.828-1.2031-69.18 18.812-16.625 20.344-19.195 49.547-5.4141 72.188 13.672 22.477 40.414 33.906 66.117 28.766 28.711-5.7969 49.438-32.047 49.656-61.086 0-7.0547-10.938-7.0547-10.992 0z"/>
  <path fill="#737c83" d="m512.2 280c0 31.441-25.488 56.93-56.93 56.93-31.441 0-56.93-25.488-56.93-56.93s25.488-56.93 56.93-56.93c31.441 0 56.93 25.488 56.93 56.93"/>
  <path fill="#737c83" d="m506.73 280c-0.16406 21.273-13.562 41.125-33.797 48.344-20.508 7.3281-43.422 0.98438-57.422-15.695-13.891-16.57-15.367-41.125-4.1562-59.445 10.992-18.102 32.922-27.945 53.758-23.734 24.008 4.8672 41.453 26.086 41.617 50.531 0.054687 7.0547 10.992 7.0547 10.938 0-0.16406-26.141-16.625-49.547-41.125-58.68-24.227-8.9688-52.828-1.2031-69.18 18.812-16.625 20.344-19.195 49.547-5.4141 72.188 13.672 22.477 40.414 33.906 66.117 28.766 28.711-5.7969 49.438-32.047 49.656-61.086 0-7.0547-10.938-7.0547-10.992 0z"/>
  <path fill="#737c83" d="m512.2 474.96c0 31.441-25.488 56.93-56.93 56.93-31.441 0-56.93-25.488-56.93-56.93 0-31.441 25.488-56.93 56.93-56.93 31.441 0 56.93 25.488 56.93 56.93"/>
  <path fill="#737c83" d="m506.73 474.96c-0.16406 21.273-13.562 41.125-33.797 48.344-20.508 7.3281-43.422 0.98437-57.422-15.695-13.891-16.57-15.367-41.125-4.1562-59.445 10.992-18.102 32.922-27.945 53.758-23.734 24.008 4.8672 41.453 26.086 41.617 50.531 0.054687 7.0547 10.992 7.0547 10.938 0-0.16406-26.141-16.625-49.547-41.125-58.68-24.227-8.9688-52.828-1.2031-69.18 18.812-16.625 20.344-19.195 49.547-5.4141 72.188 13.672 22.477 40.414 33.906 66.117 28.766 28.711-5.7969 49.438-32.047 49.656-61.086 0-7.0547-10.938-7.0547-10.992 0z"/>
 </g>
</svg>
