<?xml version="1.0" encoding="UTF-8"?>
<svg width="700pt" height="700pt" version="1.1" viewBox="0 0 700 700" xmlns="http://www.w3.org/2000/svg" xmlns:xlink="http://www.w3.org/1999/xlink">
 <defs>
  <symbol id="v" overflow="visible">
   <path d="m0.015625 0h-0.015625v-0.015625h0.015625-0.015625v0.015625h0.015625z"/>
  </symbol>
  <symbol id="c" overflow="visible">
   <path d="m0.015625-0.015625h-0.015625v0.015625-0.015625h0.015625z"/>
  </symbol>
  <symbol id="a" overflow="visible">
   <path d="m0.015625 0h-0.015625 0.015625-0.015625v-0.015625h0.015625v0.015625zm0-0.015625h-0.015625z"/>
  </symbol>
  <symbol id="d" overflow="visible">
   <path d="m0.015625 0h-0.015625 0.015625zm0 0h-0.015625v-0.015625h0.015625-0.015625 0.015625v0.015625z"/>
  </symbol>
  <symbol id="b" overflow="visible">
   <path d="m0-0.015625h0.015625-0.015625v0.015625h0.015625-0.015625z"/>
  </symbol>
  <symbol id="j" overflow="visible">
   <path d="m0.015625-0.015625v0.015625h-0.015625v-0.015625h0.015625zm0 0.015625v-0.015625h-0.015625v0.015625h0.015625z"/>
  </symbol>
  <symbol id="i" overflow="visible">
   <path d="m0.015625 0v-0.015625h-0.015625v0.015625h0.015625zm-0.015625-0.015625h0.015625v0.015625h-0.015625z"/>
  </symbol>
  <symbol id="g" overflow="visible">
   <path d="m0-0.015625 0.015625 0.015625v-0.015625 0.015625h-0.015625z"/>
  </symbol>
  <symbol id="h" overflow="visible">
   <path d="m0-0.015625v0.015625h0.015625v-0.015625zm0 0h0.015625v0.015625h-0.015625z"/>
  </symbol>
  <symbol id="f" overflow="visible">
   <path d="m0.015625-0.015625h0.015625v0.015625h-0.015625v-0.015625 0.015625-0.015625h-0.015625v0.015625-0.015625h0.015625z"/>
  </symbol>
  <symbol id="u" overflow="visible">
   <path d="m0-0.015625v0.015625z"/>
  </symbol>
  <symbol id="t" overflow="visible">
   <path d="m0-0.015625h0.015625v0.015625-0.015625 0.015625l-0.015625-0.015625v0.015625z"/>
  </symbol>
  <symbol id="s" overflow="visible">
   <path d="m0-0.015625 0.015625 0.015625v-0.015625 0.015625h-0.015625z"/>
  </symbol>
  <symbol id="r" overflow="visible">
   <path d="m0.015625-0.015625h-0.015625 0.015625-0.015625v0.015625-0.015625z"/>
  </symbol>
  <symbol id="e" overflow="visible">
   <path d="m0.015625-0.015625h-0.015625v0.015625h0.015625v-0.015625zm0 0v0.015625h-0.015625v-0.015625h0.015625z"/>
  </symbol>
  <symbol id="q" overflow="visible">
   <path d="m0.015625-0.015625v0.015625-0.015625h-0.015625v0.015625-0.015625h0.015625z"/>
  </symbol>
  <symbol id="p" overflow="visible">
   <path d="m0-0.015625 0.015625 0.015625v-0.015625 0.015625l-0.015625-0.015625v0.015625z"/>
  </symbol>
  <symbol id="o" overflow="visible">
   <path d="m0 0v-0.015625 0.015625h0.015625v-0.015625 0.015625h-0.015625z"/>
  </symbol>
  <symbol id="n" overflow="visible">
   <path d="m0.015625-0.015625v0.015625-0.015625h-0.015625v0.015625-0.015625h0.015625z"/>
  </symbol>
  <symbol id="m" overflow="visible">
   <path d="m0-0.015625h0.015625v0.015625h-0.015625zm0 0h0.015625z"/>
  </symbol>
  <symbol id="l" overflow="visible">
   <path d="m0-0.015625v0.015625z"/>
  </symbol>
  <symbol id="k" overflow="visible">
   <path d="m0.015625-0.015625h-0.015625v0.015625h0.015625-0.015625v-0.015625h0.015625z"/>
  </symbol>
 </defs>
 <g>
  <path d="m214.2 240.98 15.281-15.281-48.363-48.414c-3.2656-3.2656-3.2656-8.6055 0-11.867l108.65-108.65c3.2656-3.2656 8.5547-3.2656 11.82 0l21.266 21.266 75.562-75.562c3.2656-3.3125 8.5547-3.3125 11.867 0l48.363 48.363 21.266-21.215c3.2656-3.2656 8.5547-3.2656 11.82 0l108.65 108.65c3.3125 3.2656 3.3125 8.6055 0 11.867l-21.215 21.215 48.414 48.414c3.2656 3.2656 3.2656 8.5547 0 11.82l-163 163c-3.2656 3.2656-8.5547 3.2656-11.867 0l-21.215-21.215-42.48 42.48 21.266 21.215c3.2656 3.2656 3.2656 8.5547 0 11.867l-27.102 27.051-54.398 54.398c-3.2656 3.3125-8.6055 3.3125-11.867 0l-21.215-21.215-48.414 48.414c-3.2656 3.2656-8.6055 3.2656-11.867 0l-162.95-163c-3.3125-3.2656-3.3125-8.5547 0-11.867l48.363-48.363-21.215-21.266c-3.2656-3.2656-3.2656-8.5547 0-11.82l81.496-81.496c3.2656-3.2656 8.5547-3.2656 11.82 0l21.266 21.215zm-69.629 39.02 61.223 61.273v-6.9219c0-4.6484 3.7578-8.4062 8.4062-8.4062h6.9219l-61.273-61.223-15.281 15.281zm61.223 84.961-73.09-73.09-15.332 15.281 88.422 88.422zm82.98 59.242 61.223 61.273 15.332-15.332-61.273-61.223v6.9219c0 4.5977-3.7578 8.3594-8.3594 8.3594zm49.355 73.09-73.09-73.09h-30.609l88.422 88.422 15.281-15.332zm-166.41-244.45 73.09 73.09h30.609l-88.371-88.422-15.332 15.332zm132.34 132.34 73.09 73.09 15.332-15.281-88.422-88.422zm-81.496-42.48v64.734h64.734v-64.734zm18.793-128.88 48.414-48.414c3.2656-3.2656 8.5547-3.2656 11.82 0l48.414 48.414 42.48-42.48-96.777-96.777-96.828 96.777 42.48 42.48zm27.148-3.4609-42.43 42.48 69.629 69.629 42.43-42.48zm11.867-11.867 178.28 178.32 69.629-69.68-42.43-42.43-21.266 21.215c-3.2656 3.2656-8.5547 3.2656-11.867 0l-75.562-75.562-21.215 21.215c-3.2656 3.3125-8.6055 3.3125-11.867 0l-48.363-48.363-15.332 15.281zm139.26 163-69.629-69.629-42.48 42.48 69.629 69.629zm-15.281-147.66 123.93-123.98-42.43-42.48-96.828 96.828 21.266 21.215c3.2656 3.2656 3.2656 8.6055 0 11.867l-21.266 21.215 15.332 15.332zm135.8-112.11-123.98 123.98 42.48 42.43 123.98-123.93-42.48-42.48zm-325.94 325.94-42.48 42.48 69.629 69.629 42.48-42.48zm-54.348 30.609 42.48-42.43-69.629-69.68-42.48 42.48zm217.29-325.94 69.68-69.629-42.48-42.48-69.629 69.629zm190.14 50.887-69.629 69.629 42.48 42.48 69.629-69.629z"/>
  <use x="70" y="560.074219" xlink:href="#v"/>
  <use x="70.019531" y="560.074219" xlink:href="#c"/>
  <use x="70.03125" y="560.074219" xlink:href="#a"/>
  <use x="70.046875" y="560.074219" xlink:href="#d"/>
  <use x="70.0625" y="560.074219" xlink:href="#b"/>
  <use x="70.074219" y="560.074219" xlink:href="#a"/>
  <use x="70.09375" y="560.074219" xlink:href="#j"/>
  <use x="70.117187" y="560.074219" xlink:href="#i"/>
  <use x="70.136719" y="560.074219" xlink:href="#g"/>
  <use x="70.160156" y="560.074219" xlink:href="#h"/>
  <use x="70.183594" y="560.074219" xlink:href="#f"/>
  <use x="70.207031" y="560.074219" xlink:href="#u"/>
  <use x="70.214844" y="560.074219" xlink:href="#b"/>
  <use x="70.226562" y="560.074219" xlink:href="#c"/>
  <use x="70.238281" y="560.074219" xlink:href="#g"/>
  <use x="70.265625" y="560.074219" xlink:href="#t"/>
  <use x="70.289062" y="560.074219" xlink:href="#d"/>
  <use x="70.304688" y="560.074219" xlink:href="#f"/>
  <use x="70.332031" y="560.074219" xlink:href="#d"/>
  <use x="70.347656" y="560.074219" xlink:href="#a"/>
  <use x="70.363281" y="560.074219" xlink:href="#s"/>
  <use x="70" y="560.097656" xlink:href="#r"/>
  <use x="70.011719" y="560.097656" xlink:href="#c"/>
  <use x="70.023438" y="560.097656" xlink:href="#e"/>
  <use x="70.039062" y="560.097656" xlink:href="#f"/>
  <use x="70.074219" y="560.097656" xlink:href="#b"/>
  <use x="70.085938" y="560.097656" xlink:href="#q"/>
  <use x="70.105469" y="560.097656" xlink:href="#a"/>
  <use x="70.128906" y="560.097656" xlink:href="#p"/>
  <use x="70.148438" y="560.097656" xlink:href="#e"/>
  <use x="70.167969" y="560.097656" xlink:href="#o"/>
  <use x="70.183594" y="560.097656" xlink:href="#n"/>
  <use x="70.210937" y="560.097656" xlink:href="#m"/>
  <use x="70.230469" y="560.097656" xlink:href="#c"/>
  <use x="70.242188" y="560.097656" xlink:href="#e"/>
  <use x="70.257812" y="560.097656" xlink:href="#l"/>
  <use x="70.265625" y="560.097656" xlink:href="#a"/>
  <use x="70.28125" y="560.097656" xlink:href="#k"/>
  <use x="70.296875" y="560.097656" xlink:href="#b"/>
 </g>
</svg>
