<?xml version="1.0" encoding="iso-8859-1"?>
<!-- Generator: Adobe Illustrator 19.0.0, SVG Export Plug-In . SVG Version: 6.00 Build 0)  -->
<svg version="1.1" id="Layer_1" xmlns="http://www.w3.org/2000/svg" xmlns:xlink="http://www.w3.org/1999/xlink" x="0px" y="0px"
	 viewBox="0 0 512 512" style="enable-background:new 0 0 512 512;" xml:space="preserve" stroke="#6c757d" >
<g>
	<g>
		<path fill="#6c757d" d="M442.434,52.012L275.781,2.863c-12.938-3.817-26.621-3.817-39.563,0L69.567,52.011
			c-12.304,3.628-20.897,15.12-20.897,27.948v138.014c0,63.872,19.013,125.375,54.984,177.86
			c35.118,51.243,83.991,90.665,141.33,114c3.552,1.445,7.284,2.168,11.016,2.168s7.464-0.724,11.015-2.168
			c57.339-23.335,106.212-62.755,141.33-114c35.97-52.486,54.983-113.988,54.983-177.86V79.96
			C463.33,67.132,454.737,55.639,442.434,52.012z M440.02,217.972c0,59.147-17.602,116.093-50.901,164.681
			c-32.53,47.466-77.79,83.978-130.889,105.587c-1.438,0.585-3.021,0.585-4.459,0c-53.099-21.609-98.36-58.12-130.889-105.587
			C89.583,334.065,71.981,277.12,71.981,217.972V79.959c0-2.565,1.719-4.863,4.18-5.589l166.652-49.149
			c4.314-1.273,8.751-1.908,13.188-1.908c4.436,0,8.873,0.636,13.187,1.909L435.842,74.37c2.459,0.725,4.178,3.023,4.178,5.589
			V217.972z"/>
	</g>
</g>
<g>
</g>
<g>
</g>
<g>
</g>
<g>
</g>
<g>
</g>
<g>
</g>
<g>
</g>
<g>
</g>
<g>
</g>
<g>
</g>
<g>
</g>
<g>
</g>
<g>
</g>
<g>
</g>
<g>
</g>
</svg>
